<svg width="20" height="20" viewBox="0 0 20 20" fill="none" xmlns="http://www.w3.org/2000/svg">
<g id="trash-2">
<path id="Vector" d="M2.5 5H4.16667H17.5" stroke="#333333" stroke-width="2" stroke-linecap="round" stroke-linejoin="round"/>
<path id="Vector_2" d="M15.8337 5V16.6667C15.8337 17.1087 15.6581 17.5326 15.3455 17.8452C15.0329 18.1577 14.609 18.3333 14.167 18.3333H5.83366C5.39163 18.3333 4.96771 18.1577 4.65515 17.8452C4.34259 17.5326 4.16699 17.1087 4.16699 16.6667V5M6.66699 5V3.33333C6.66699 2.8913 6.84259 2.46738 7.15515 2.15482C7.46771 1.84226 7.89163 1.66666 8.33366 1.66666H11.667C12.109 1.66666 12.5329 1.84226 12.8455 2.15482C13.1581 2.46738 13.3337 2.8913 13.3337 3.33333V5" stroke="#333333" stroke-width="2" stroke-linecap="round" stroke-linejoin="round"/>
<path id="Vector_3" d="M8.33301 9.16666V14.1667" stroke="#333333" stroke-width="2" stroke-linecap="round" stroke-linejoin="round"/>
<path id="Vector_4" d="M11.667 9.16666V14.1667" stroke="#333333" stroke-width="2" stroke-linecap="round" stroke-linejoin="round"/>
</g>
</svg>
