<svg width="20" height="20" viewBox="0 0 20 20" fill="none" xmlns="http://www.w3.org/2000/svg">
<g id="edit" clip-path="url(#clip0_47_131)">
<path id="Vector" d="M9.16699 3.33334H3.33366C2.89163 3.33334 2.46771 3.50893 2.15515 3.82149C1.84259 4.13405 1.66699 4.55798 1.66699 5V16.6667C1.66699 17.1087 1.84259 17.5326 2.15515 17.8452C2.46771 18.1577 2.89163 18.3333 3.33366 18.3333H15.0003C15.4424 18.3333 15.8663 18.1577 16.1788 17.8452C16.4914 17.5326 16.667 17.1087 16.667 16.6667V10.8333" stroke="#333333" stroke-width="2" stroke-linecap="round" stroke-linejoin="round"/>
<path id="Vector_2" d="M15.417 2.08333C15.7485 1.75181 16.1982 1.56557 16.667 1.56557C17.1358 1.56557 17.5855 1.75181 17.917 2.08333C18.2485 2.41485 18.4348 2.86449 18.4348 3.33333C18.4348 3.80217 18.2485 4.25181 17.917 4.58333L10.0003 12.5L6.66699 13.3333L7.50033 10L15.417 2.08333Z" stroke="#333333" stroke-width="2" stroke-linecap="round" stroke-linejoin="round"/>
</g>
<defs>
<clipPath id="clip0_47_131">
<rect width="20" height="20" fill="white"/>
</clipPath>
</defs>
</svg>
