<svg width="21" height="20" viewBox="0 0 21 20" fill="none" xmlns="http://www.w3.org/2000/svg">
<g id="edit">
<path id="Vector" d="M9.6665 3.33333H3.83317C3.39114 3.33333 2.96722 3.50892 2.65466 3.82148C2.3421 4.13404 2.1665 4.55797 2.1665 4.99999V16.6667C2.1665 17.1087 2.3421 17.5326 2.65466 17.8452C2.96722 18.1577 3.39114 18.3333 3.83317 18.3333H15.4998C15.9419 18.3333 16.3658 18.1577 16.6783 17.8452C16.9909 17.5326 17.1665 17.1087 17.1665 16.6667V10.8333" stroke="#808080" stroke-width="2" stroke-linecap="round" stroke-linejoin="round"/>
<path id="Vector_2" d="M15.9165 2.08333C16.248 1.75181 16.6977 1.56557 17.1665 1.56557C17.6353 1.56557 18.085 1.75181 18.4165 2.08333C18.748 2.41485 18.9343 2.86449 18.9343 3.33333C18.9343 3.80217 18.748 4.25181 18.4165 4.58333L10.4998 12.5L7.1665 13.3333L7.99984 10L15.9165 2.08333Z" stroke="#808080" stroke-width="2" stroke-linecap="round" stroke-linejoin="round"/>
</g>
</svg>
