<svg width="24" height="20" viewBox="0 0 24 20" fill="none" xmlns="http://www.w3.org/2000/svg">
<g id="logo" clip-path="url(#clip0_18_207)">
<path id="Ellipse 1" d="M17.4032 10.0645C17.4032 7.97661 16.8579 5.94038 15.8429 4.23794C14.8279 2.53549 13.3934 1.25112 11.7381 0.562739C10.0828 -0.125638 8.28873 -0.183933 6.60439 0.39593C4.92006 0.975793 3.42886 2.16511 2.33738 3.7991C1.2459 5.4331 0.608184 7.43089 0.512575 9.51569C0.416966 11.6005 0.868199 13.6691 1.80376 15.4349C2.73932 17.2007 4.1129 18.5764 5.73418 19.3712C7.35547 20.166 9.14422 20.3408 10.8526 19.8711L10.2797 16.9155C9.08617 17.2436 7.83654 17.1215 6.7039 16.5662C5.57126 16.0109 4.61167 15.0499 3.95808 13.8163C3.3045 12.5827 2.98926 11.1376 3.05605 9.6811C3.12285 8.22465 3.56836 6.82898 4.33087 5.68746C5.09339 4.54595 6.13515 3.71508 7.31183 3.30999C8.48852 2.90489 9.74187 2.94562 10.8983 3.42652C12.0546 3.90743 13.0568 4.8047 13.7659 5.99404C14.475 7.18337 14.856 8.60589 14.856 10.0645H17.4032Z" fill="#0E0E0E"/>
<path id="Vector 1" d="M12.6938 9.8064H9.79053L12.6938 19.4838H15.597L16.6292 16.9677L17.597 19.4838H20.4357L23.0163 9.8064H19.855L18.1776 16.3225L16.6292 12.8387L14.6938 16.5806L12.6938 9.8064Z" fill="#0E0E0E"/>
</g>
<defs>
<clipPath id="clip0_18_207">
<rect width="23.2258" height="20" fill="white" transform="translate(0.5)"/>
</clipPath>
</defs>
</svg>
