<svg width="52" height="45" viewBox="0 0 52 45" fill="none" xmlns="http://www.w3.org/2000/svg">
<g clip-path="url(#clip0_103_2)">
<path d="M37.4487 22.5C37.4487 17.936 36.2568 13.4851 34.038 9.7637C31.8193 6.04233 28.6836 3.23481 25.0653 1.73009C21.447 0.225368 17.5254 0.0979415 13.8436 1.36546C10.1618 2.63298 6.90218 5.2327 4.51632 8.80445C2.13047 12.3762 0.73648 16.7432 0.527488 21.3003C0.318496 25.8575 1.30485 30.3792 3.34989 34.2392C5.39493 38.0991 8.39742 41.106 11.9414 42.8435C15.4854 44.5809 19.3954 44.9628 23.1297 43.9363L21.8773 37.4755C19.2685 38.1926 16.5369 37.9259 14.0611 36.7121C11.5852 35.4983 9.48769 33.3976 8.05902 30.701C6.63034 28.0045 5.94127 24.8456 6.08727 21.6619C6.23328 18.4782 7.20712 15.4275 8.8739 12.9322C10.5407 10.437 12.8179 8.62079 15.39 7.7353C17.9621 6.8498 20.7018 6.93882 23.2295 7.99003C25.7573 9.04123 27.9479 11.0026 29.4979 13.6023C31.048 16.2021 31.8806 19.3116 31.8806 22.5H37.4487Z" fill="#0E0E0E"/>
<path d="M27.1538 21.9359H20.8076L27.1538 43.0898H33.4999L35.7563 37.5898L37.8717 43.0898H44.0768L49.7179 21.9359H42.8076L39.141 36.1795L35.7563 28.5641L31.5256 36.7436L27.1538 21.9359Z" fill="#0E0E0E"/>
</g>
<defs>
<clipPath id="clip0_103_2">
<rect width="50.7692" height="44" fill="white" transform="translate(0.5 0.5)"/>
</clipPath>
</defs>
</svg>
