<svg width="64" height="56" viewBox="0 0 64 56" fill="none" xmlns="http://www.w3.org/2000/svg">
<g id="logo" clip-path="url(#clip0_1_11)">
<path id="Ellipse 1" d="M46.3351 28.0155C46.3351 22.3579 44.8576 16.8404 42.1071 12.2273C39.3567 7.61418 35.4696 4.13391 30.9843 2.26862C26.499 0.403334 21.6376 0.245373 17.0736 1.81662C12.5096 3.38787 8.46889 6.61055 5.51133 11.0382C2.55376 15.4658 0.825739 20.8792 0.566668 26.5284C0.307596 32.1775 1.5303 37.7828 4.06538 42.5676C6.60046 47.3525 10.3224 51.08 14.7156 53.2338C19.1088 55.3876 23.9558 55.861 28.5849 54.5884L27.0324 46.5795C23.7985 47.4685 20.4124 47.1378 17.3432 45.6331C14.2741 44.1285 11.674 41.5244 9.90293 38.1817C8.13191 34.839 7.27772 30.9231 7.45871 26.9766C7.6397 23.03 8.8469 19.2482 10.9131 16.1551C12.9793 13.0619 15.8021 10.8105 18.9906 9.71282C22.179 8.61514 25.5752 8.72549 28.7087 10.0286C31.8421 11.3317 34.5577 13.763 36.4791 16.9858C38.4006 20.2085 39.4328 24.0631 39.4328 28.0155H46.3351Z" fill="#0E0E0E"/>
<path id="Vector 1" d="M33.5733 27.3162H25.7064L33.5733 53.539H41.4401L44.2372 46.7211L46.8595 53.539H54.5515L61.5443 27.3162H52.9782L48.4329 44.9729L44.2372 35.5327L38.9927 45.6722L33.5733 27.3162Z" fill="#0E0E0E"/>
</g>
<defs>
<clipPath id="clip0_1_11">
<rect width="62.9348" height="54.5435" fill="white" transform="translate(0.532593 0.743774)"/>
</clipPath>
</defs>
</svg>
