<svg width="25" height="24" viewBox="0 0 25 24" fill="none" xmlns="http://www.w3.org/2000/svg">
<g id="mage:filter">
<path id="Vector" d="M21.75 12H9.395M5.034 12H3.25M5.034 12C5.034 11.4218 5.26368 10.8673 5.67251 10.4585C6.08134 10.0497 6.63583 9.82 7.214 9.82C7.79217 9.82 8.34666 10.0497 8.75549 10.4585C9.16432 10.8673 9.394 11.4218 9.394 12C9.394 12.5782 9.16432 13.1327 8.75549 13.5415C8.34666 13.9503 7.79217 14.18 7.214 14.18C6.63583 14.18 6.08134 13.9503 5.67251 13.5415C5.26368 13.1327 5.034 12.5782 5.034 12ZM21.75 18.607H16.002M16.002 18.607C16.002 19.1853 15.7718 19.7404 15.3628 20.1493C14.9539 20.5583 14.3993 20.788 13.821 20.788C13.2428 20.788 12.6883 20.5573 12.2795 20.1485C11.8707 19.7397 11.641 19.1852 11.641 18.607M16.002 18.607C16.002 18.0287 15.7718 17.4746 15.3628 17.0656C14.9539 16.6567 14.3993 16.427 13.821 16.427C13.2428 16.427 12.6883 16.6567 12.2795 17.0655C11.8707 17.4743 11.641 18.0288 11.641 18.607M11.641 18.607H3.25M21.75 5.393H18.645M14.284 5.393H3.25M14.284 5.393C14.284 4.81483 14.5137 4.26033 14.9225 3.8515C15.3313 3.44268 15.8858 3.213 16.464 3.213C16.7503 3.213 17.0338 3.26938 17.2983 3.37894C17.5627 3.4885 17.8031 3.64907 18.0055 3.8515C18.2079 4.05394 18.3685 4.29426 18.4781 4.55875C18.5876 4.82324 18.644 5.10672 18.644 5.393C18.644 5.67928 18.5876 5.96276 18.4781 6.22725C18.3685 6.49174 18.2079 6.73206 18.0055 6.93449C17.8031 7.13692 17.5627 7.2975 17.2983 7.40705C17.0338 7.51661 16.7503 7.573 16.464 7.573C15.8858 7.573 15.3313 7.34332 14.9225 6.93449C14.5137 6.52566 14.284 5.97117 14.284 5.393Z" stroke="#0E0E0E" stroke-width="1.5" stroke-miterlimit="10" stroke-linecap="round"/>
</g>
</svg>
